<svg width="21" height="22" viewBox="0 0 21 22" fill="none" xmlns="http://www.w3.org/2000/svg">
<path d="M19.3205 0.5H1.79437C0.836719 0.5 0 1.18906 0 2.13547V19.7005C0 20.652 0.836719 21.5 1.79437 21.5H19.3153C20.2781 21.5 21 20.6464 21 19.7005V2.13547C21.0056 1.18906 20.2781 0.5 19.3205 0.5ZM6.50953 18.0045H3.50109V8.65063H6.50953V18.0045ZM5.10938 7.22844H5.08781C4.125 7.22844 3.50156 6.51172 3.50156 5.61453C3.50156 4.70094 4.14141 4.00109 5.12578 4.00109C6.11016 4.00109 6.7125 4.69578 6.73406 5.61453C6.73359 6.51172 6.11016 7.22844 5.10938 7.22844ZM17.5045 18.0045H14.4961V12.89C14.4961 11.6647 14.0583 10.8275 12.9698 10.8275C12.1383 10.8275 11.6461 11.39 11.4272 11.938C11.3452 12.1348 11.3231 12.403 11.3231 12.6767V18.0045H8.31469V8.65063H11.3231V9.95234C11.7609 9.32891 12.4448 8.43172 14.0363 8.43172C16.0111 8.43172 17.505 9.73344 17.505 12.5398L17.5045 18.0045Z" fill="white"/>
</svg>
